<svg width="258" height="63" viewBox="0 0 258 63" fill="none" xmlns="http://www.w3.org/2000/svg">
<circle cx="31.5" cy="31.5" r="27.5" fill="#2E73C4"/>
<circle cx="31.5" cy="31.5" r="30.5" stroke="#2E73C4" stroke-width="2" stroke-dasharray="4 4"/>
<path d="M16.0144 22.5594L31.5 13.6188L46.9856 22.5594V40.4406L31.5 49.3812L16.0144 40.4406V22.5594Z" stroke="#F4F8FC" stroke-width="8"/>
<path d="M82.456 21.614H86.304V28.998C85.316 29.7433 84.172 30.3153 82.872 30.714C81.572 31.1127 80.2633 31.312 78.946 31.312C77.0567 31.312 75.358 30.9133 73.85 30.116C72.342 29.3013 71.1547 28.1833 70.288 26.762C69.4387 25.3233 69.014 23.7027 69.014 21.9C69.014 20.0973 69.4387 18.4853 70.288 17.064C71.1547 15.6253 72.3507 14.5073 73.876 13.71C75.4013 12.8953 77.1173 12.488 79.024 12.488C80.6187 12.488 82.066 12.7567 83.366 13.294C84.666 13.8313 85.758 14.6113 86.642 15.634L83.938 18.13C82.638 16.7607 81.0693 16.076 79.232 16.076C78.0707 16.076 77.0393 16.3187 76.138 16.804C75.2367 17.2893 74.5347 17.974 74.032 18.858C73.5293 19.742 73.278 20.756 73.278 21.9C73.278 23.0267 73.5293 24.032 74.032 24.916C74.5347 25.8 75.228 26.4933 76.112 26.996C77.0133 27.4813 78.036 27.724 79.18 27.724C80.3933 27.724 81.4853 27.464 82.456 26.944V21.614ZM101.813 31L98.3026 25.93H98.0946H94.4286V31H90.2166V12.8H98.0946C99.7066 12.8 101.102 13.0687 102.281 13.606C103.477 14.1433 104.395 14.906 105.037 15.894C105.678 16.882 105.999 18.052 105.999 19.404C105.999 20.756 105.669 21.926 105.011 22.914C104.369 23.8847 103.451 24.63 102.255 25.15L106.337 31H101.813ZM101.735 19.404C101.735 18.3813 101.405 17.6013 100.747 17.064C100.088 16.5093 99.1259 16.232 97.8606 16.232H94.4286V22.576H97.8606C99.1259 22.576 100.088 22.2987 100.747 21.744C101.405 21.1893 101.735 20.4093 101.735 19.404ZM121.322 27.1H112.872L111.26 31H106.944L115.056 12.8H119.216L127.354 31H122.934L121.322 27.1ZM119.996 23.902L117.11 16.934L114.224 23.902H119.996ZM145.934 12.8V31H142.476L133.402 19.95V31H129.242V12.8H132.726L141.774 23.85V12.8H145.934ZM150.24 12.8H154.452V31H150.24V12.8ZM175.333 31L175.307 20.08L169.951 29.076H168.053L162.723 20.314V31H158.771V12.8H162.255L169.067 24.11L175.775 12.8H179.233L179.285 31H175.333ZM195.589 27.1H187.139L185.527 31H181.211L189.323 12.8H193.483L201.621 31H197.201L195.589 27.1ZM194.263 23.902L191.377 16.934L188.491 23.902H194.263ZM206.366 16.232H200.542V12.8H216.402V16.232H210.578V31H206.366V16.232ZM227.228 31.312C225.339 31.312 223.631 30.9047 222.106 30.09C220.598 29.2753 219.411 28.1573 218.544 26.736C217.695 25.2973 217.27 23.6853 217.27 21.9C217.27 20.1147 217.695 18.5113 218.544 17.09C219.411 15.6513 220.598 14.5247 222.106 13.71C223.631 12.8953 225.339 12.488 227.228 12.488C229.117 12.488 230.816 12.8953 232.324 13.71C233.832 14.5247 235.019 15.6513 235.886 17.09C236.753 18.5113 237.186 20.1147 237.186 21.9C237.186 23.6853 236.753 25.2973 235.886 26.736C235.019 28.1573 233.832 29.2753 232.324 30.09C230.816 30.9047 229.117 31.312 227.228 31.312ZM227.228 27.724C228.303 27.724 229.273 27.4813 230.14 26.996C231.007 26.4933 231.683 25.8 232.168 24.916C232.671 24.032 232.922 23.0267 232.922 21.9C232.922 20.7733 232.671 19.768 232.168 18.884C231.683 18 231.007 17.3153 230.14 16.83C229.273 16.3273 228.303 16.076 227.228 16.076C226.153 16.076 225.183 16.3273 224.316 16.83C223.449 17.3153 222.765 18 222.262 18.884C221.777 19.768 221.534 20.7733 221.534 21.9C221.534 23.0267 221.777 24.032 222.262 24.916C222.765 25.8 223.449 26.4933 224.316 26.996C225.183 27.4813 226.153 27.724 227.228 27.724ZM251.947 31L248.437 25.93H248.229H244.563V31H240.351V12.8H248.229C249.841 12.8 251.237 13.0687 252.415 13.606C253.611 14.1433 254.53 14.906 255.171 15.894C255.813 16.882 256.133 18.052 256.133 19.404C256.133 20.756 255.804 21.926 255.145 22.914C254.504 23.8847 253.585 24.63 252.389 25.15L256.471 31H251.947ZM251.869 19.404C251.869 18.3813 251.54 17.6013 250.881 17.064C250.223 16.5093 249.261 16.232 247.995 16.232H244.563V22.576H247.995C249.261 22.576 250.223 22.2987 250.881 21.744C251.54 21.1893 251.869 20.4093 251.869 19.404Z" fill="black"/>
<path d="M74.804 39.4C76.436 39.4 77.72 39.79 78.656 40.57C79.592 41.35 80.06 42.424 80.06 43.792C80.06 45.16 79.592 46.234 78.656 47.014C77.72 47.794 76.436 48.184 74.804 48.184H71.69V52H69.89V39.4H74.804ZM74.75 46.618C75.89 46.618 76.76 46.378 77.36 45.898C77.96 45.406 78.26 44.704 78.26 43.792C78.26 42.88 77.96 42.184 77.36 41.704C76.76 41.212 75.89 40.966 74.75 40.966H71.69V46.618H74.75ZM82.6282 38.644H84.3562V52H82.6282V38.644ZM91.1296 42.37C92.4496 42.37 93.4576 42.694 94.1536 43.342C94.8616 43.99 95.2156 44.956 95.2156 46.24V52H93.5776V50.74C93.2896 51.184 92.8756 51.526 92.3356 51.766C91.8076 51.994 91.1776 52.108 90.4456 52.108C89.3776 52.108 88.5196 51.85 87.8716 51.334C87.2356 50.818 86.9176 50.14 86.9176 49.3C86.9176 48.46 87.2236 47.788 87.8356 47.284C88.4476 46.768 89.4196 46.51 90.7516 46.51H93.4876V46.168C93.4876 45.424 93.2716 44.854 92.8396 44.458C92.4076 44.062 91.7716 43.864 90.9316 43.864C90.3676 43.864 89.8156 43.96 89.2756 44.152C88.7356 44.332 88.2796 44.578 87.9076 44.89L87.1876 43.594C87.6796 43.198 88.2676 42.898 88.9516 42.694C89.6356 42.478 90.3616 42.37 91.1296 42.37ZM90.7336 50.776C91.3936 50.776 91.9636 50.632 92.4436 50.344C92.9236 50.044 93.2716 49.624 93.4876 49.084V47.752H90.8236C89.3596 47.752 88.6276 48.244 88.6276 49.228C88.6276 49.708 88.8136 50.086 89.1856 50.362C89.5576 50.638 90.0736 50.776 90.7336 50.776ZM103.777 51.442C103.525 51.658 103.213 51.826 102.841 51.946C102.469 52.054 102.085 52.108 101.689 52.108C100.729 52.108 99.9854 51.85 99.4574 51.334C98.9294 50.818 98.6654 50.08 98.6654 49.12V43.882H97.0454V42.46H98.6654V40.372H100.393V42.46H103.129V43.882H100.393V49.048C100.393 49.564 100.519 49.96 100.771 50.236C101.035 50.512 101.407 50.65 101.887 50.65C102.415 50.65 102.865 50.5 103.237 50.2L103.777 51.442ZM109.359 39.958C108.327 39.958 107.811 40.516 107.811 41.632V42.46H110.583V43.882H107.847V52H106.119V43.882H104.499V42.46H106.119V41.614C106.119 40.666 106.395 39.916 106.947 39.364C107.499 38.812 108.273 38.536 109.269 38.536C109.653 38.536 110.013 38.584 110.349 38.68C110.685 38.776 110.973 38.914 111.213 39.094L110.691 40.408C110.295 40.108 109.851 39.958 109.359 39.958ZM116.158 52.108C115.21 52.108 114.358 51.898 113.602 51.478C112.846 51.058 112.252 50.482 111.82 49.75C111.4 49.006 111.19 48.166 111.19 47.23C111.19 46.294 111.4 45.46 111.82 44.728C112.252 43.984 112.846 43.408 113.602 43C114.358 42.58 115.21 42.37 116.158 42.37C117.106 42.37 117.952 42.58 118.696 43C119.452 43.408 120.04 43.984 120.46 44.728C120.892 45.46 121.108 46.294 121.108 47.23C121.108 48.166 120.892 49.006 120.46 49.75C120.04 50.482 119.452 51.058 118.696 51.478C117.952 51.898 117.106 52.108 116.158 52.108ZM116.158 50.596C116.77 50.596 117.316 50.458 117.796 50.182C118.288 49.894 118.672 49.498 118.948 48.994C119.224 48.478 119.362 47.89 119.362 47.23C119.362 46.57 119.224 45.988 118.948 45.484C118.672 44.968 118.288 44.572 117.796 44.296C117.316 44.02 116.77 43.882 116.158 43.882C115.546 43.882 114.994 44.02 114.502 44.296C114.022 44.572 113.638 44.968 113.35 45.484C113.074 45.988 112.936 46.57 112.936 47.23C112.936 47.89 113.074 48.478 113.35 48.994C113.638 49.498 114.022 49.894 114.502 50.182C114.994 50.458 115.546 50.596 116.158 50.596ZM125.153 44.062C125.453 43.51 125.897 43.09 126.485 42.802C127.073 42.514 127.787 42.37 128.627 42.37V44.044C128.531 44.032 128.399 44.026 128.231 44.026C127.295 44.026 126.557 44.308 126.017 44.872C125.489 45.424 125.225 46.216 125.225 47.248V52H123.497V42.46H125.153V44.062ZM142.691 42.37C143.891 42.37 144.839 42.718 145.535 43.414C146.243 44.11 146.597 45.142 146.597 46.51V52H144.869V46.708C144.869 45.784 144.653 45.088 144.221 44.62C143.801 44.152 143.195 43.918 142.403 43.918C141.527 43.918 140.831 44.194 140.315 44.746C139.799 45.286 139.541 46.066 139.541 47.086V52H137.813V46.708C137.813 45.784 137.597 45.088 137.165 44.62C136.745 44.152 136.139 43.918 135.347 43.918C134.471 43.918 133.775 44.194 133.259 44.746C132.743 45.286 132.485 46.066 132.485 47.086V52H130.757V42.46H132.413V43.882C132.761 43.39 133.217 43.018 133.781 42.766C134.345 42.502 134.987 42.37 135.707 42.37C136.451 42.37 137.111 42.52 137.687 42.82C138.263 43.12 138.707 43.558 139.019 44.134C139.379 43.582 139.877 43.15 140.513 42.838C141.161 42.526 141.887 42.37 142.691 42.37Z" fill="#2E73C4"/>
</svg>
