<svg width="190" height="119" viewBox="0 0 190 119" fill="none" xmlns="http://www.w3.org/2000/svg">
<circle cx="95" cy="31.5" r="27.5" fill="#2E73C4"/>
<circle cx="95" cy="31.5" r="30.5" stroke="#2E73C4" stroke-width="2" stroke-dasharray="4 4"/>
<path d="M79.5144 22.5594L95 13.6188L110.486 22.5594V40.4406L95 49.3812L79.5144 40.4406V22.5594Z" stroke="#F4F8FC" stroke-width="8"/>
<path d="M14.456 83.614H18.304V90.998C17.316 91.7433 16.172 92.3153 14.872 92.714C13.572 93.1127 12.2633 93.312 10.946 93.312C9.05667 93.312 7.358 92.9133 5.85 92.116C4.342 91.3013 3.15467 90.1833 2.288 88.762C1.43867 87.3233 1.014 85.7027 1.014 83.9C1.014 82.0973 1.43867 80.4853 2.288 79.064C3.15467 77.6253 4.35067 76.5073 5.876 75.71C7.40133 74.8953 9.11733 74.488 11.024 74.488C12.6187 74.488 14.066 74.7567 15.366 75.294C16.666 75.8313 17.758 76.6113 18.642 77.634L15.938 80.13C14.638 78.7607 13.0693 78.076 11.232 78.076C10.0707 78.076 9.03933 78.3187 8.138 78.804C7.23667 79.2893 6.53467 79.974 6.032 80.858C5.52933 81.742 5.278 82.756 5.278 83.9C5.278 85.0267 5.52933 86.032 6.032 86.916C6.53467 87.8 7.228 88.4933 8.112 88.996C9.01333 89.4813 10.036 89.724 11.18 89.724C12.3933 89.724 13.4853 89.464 14.456 88.944V83.614ZM33.8126 93L30.3026 87.93H30.0946H26.4286V93H22.2166V74.8H30.0946C31.7066 74.8 33.1019 75.0687 34.2806 75.606C35.4766 76.1433 36.3953 76.906 37.0366 77.894C37.6779 78.882 37.9986 80.052 37.9986 81.404C37.9986 82.756 37.6693 83.926 37.0106 84.914C36.3693 85.8847 35.4506 86.63 34.2546 87.15L38.3366 93H33.8126ZM33.7346 81.404C33.7346 80.3813 33.4053 79.6013 32.7466 79.064C32.0879 78.5093 31.1259 78.232 29.8606 78.232H26.4286V84.576H29.8606C31.1259 84.576 32.0879 84.2987 32.7466 83.744C33.4053 83.1893 33.7346 82.4093 33.7346 81.404ZM53.3217 89.1H44.8717L43.2597 93H38.9437L47.0557 74.8H51.2157L59.3537 93H54.9337L53.3217 89.1ZM51.9957 85.902L49.1097 78.934L46.2237 85.902H51.9957ZM77.934 74.8V93H74.476L65.402 81.95V93H61.242V74.8H64.726L73.774 85.85V74.8H77.934ZM82.24 74.8H86.452V93H82.24V74.8ZM107.333 93L107.307 82.08L101.951 91.076H100.053L94.7233 82.314V93H90.7713V74.8H94.2553L101.067 86.11L107.775 74.8H111.233L111.285 93H107.333ZM127.589 89.1H119.139L117.527 93H113.211L121.323 74.8H125.483L133.621 93H129.201L127.589 89.1ZM126.263 85.902L123.377 78.934L120.491 85.902H126.263ZM138.366 78.232H132.542V74.8H148.402V78.232H142.578V93H138.366V78.232ZM159.228 93.312C157.339 93.312 155.631 92.9047 154.106 92.09C152.598 91.2753 151.411 90.1573 150.544 88.736C149.695 87.2973 149.27 85.6853 149.27 83.9C149.27 82.1147 149.695 80.5113 150.544 79.09C151.411 77.6513 152.598 76.5247 154.106 75.71C155.631 74.8953 157.339 74.488 159.228 74.488C161.117 74.488 162.816 74.8953 164.324 75.71C165.832 76.5247 167.019 77.6513 167.886 79.09C168.753 80.5113 169.186 82.1147 169.186 83.9C169.186 85.6853 168.753 87.2973 167.886 88.736C167.019 90.1573 165.832 91.2753 164.324 92.09C162.816 92.9047 161.117 93.312 159.228 93.312ZM159.228 89.724C160.303 89.724 161.273 89.4813 162.14 88.996C163.007 88.4933 163.683 87.8 164.168 86.916C164.671 86.032 164.922 85.0267 164.922 83.9C164.922 82.7733 164.671 81.768 164.168 80.884C163.683 80 163.007 79.3153 162.14 78.83C161.273 78.3273 160.303 78.076 159.228 78.076C158.153 78.076 157.183 78.3273 156.316 78.83C155.449 79.3153 154.765 80 154.262 80.884C153.777 81.768 153.534 82.7733 153.534 83.9C153.534 85.0267 153.777 86.032 154.262 86.916C154.765 87.8 155.449 88.4933 156.316 88.996C157.183 89.4813 158.153 89.724 159.228 89.724ZM183.947 93L180.437 87.93H180.229H176.563V93H172.351V74.8H180.229C181.841 74.8 183.237 75.0687 184.415 75.606C185.611 76.1433 186.53 76.906 187.171 77.894C187.813 78.882 188.133 80.052 188.133 81.404C188.133 82.756 187.804 83.926 187.145 84.914C186.504 85.8847 185.585 86.63 184.389 87.15L188.471 93H183.947ZM183.869 81.404C183.869 80.3813 183.54 79.6013 182.881 79.064C182.223 78.5093 181.261 78.232 179.995 78.232H176.563V84.576H179.995C181.261 84.576 182.223 84.2987 182.881 83.744C183.54 83.1893 183.869 82.4093 183.869 81.404Z" fill="black"/>
<path d="M61.304 101.4C62.936 101.4 64.22 101.79 65.156 102.57C66.092 103.35 66.56 104.424 66.56 105.792C66.56 107.16 66.092 108.234 65.156 109.014C64.22 109.794 62.936 110.184 61.304 110.184H58.19V114H56.39V101.4H61.304ZM61.25 108.618C62.39 108.618 63.26 108.378 63.86 107.898C64.46 107.406 64.76 106.704 64.76 105.792C64.76 104.88 64.46 104.184 63.86 103.704C63.26 103.212 62.39 102.966 61.25 102.966H58.19V108.618H61.25ZM69.1282 100.644H70.8562V114H69.1282V100.644ZM77.6296 104.37C78.9496 104.37 79.9576 104.694 80.6536 105.342C81.3616 105.99 81.7156 106.956 81.7156 108.24V114H80.0776V112.74C79.7896 113.184 79.3756 113.526 78.8356 113.766C78.3076 113.994 77.6776 114.108 76.9456 114.108C75.8776 114.108 75.0196 113.85 74.3716 113.334C73.7356 112.818 73.4176 112.14 73.4176 111.3C73.4176 110.46 73.7236 109.788 74.3356 109.284C74.9476 108.768 75.9196 108.51 77.2516 108.51H79.9876V108.168C79.9876 107.424 79.7716 106.854 79.3396 106.458C78.9076 106.062 78.2716 105.864 77.4316 105.864C76.8676 105.864 76.3156 105.96 75.7756 106.152C75.2356 106.332 74.7796 106.578 74.4076 106.89L73.6876 105.594C74.1796 105.198 74.7676 104.898 75.4516 104.694C76.1356 104.478 76.8616 104.37 77.6296 104.37ZM77.2336 112.776C77.8936 112.776 78.4636 112.632 78.9436 112.344C79.4236 112.044 79.7716 111.624 79.9876 111.084V109.752H77.3236C75.8596 109.752 75.1276 110.244 75.1276 111.228C75.1276 111.708 75.3136 112.086 75.6856 112.362C76.0576 112.638 76.5736 112.776 77.2336 112.776ZM90.2774 113.442C90.0254 113.658 89.7134 113.826 89.3414 113.946C88.9694 114.054 88.5854 114.108 88.1894 114.108C87.2294 114.108 86.4854 113.85 85.9574 113.334C85.4294 112.818 85.1654 112.08 85.1654 111.12V105.882H83.5454V104.46H85.1654V102.372H86.8934V104.46H89.6294V105.882H86.8934V111.048C86.8934 111.564 87.0194 111.96 87.2714 112.236C87.5354 112.512 87.9074 112.65 88.3874 112.65C88.9154 112.65 89.3654 112.5 89.7374 112.2L90.2774 113.442ZM95.8585 101.958C94.8265 101.958 94.3105 102.516 94.3105 103.632V104.46H97.0825V105.882H94.3465V114H92.6185V105.882H90.9985V104.46H92.6185V103.614C92.6185 102.666 92.8945 101.916 93.4465 101.364C93.9985 100.812 94.7725 100.536 95.7685 100.536C96.1525 100.536 96.5125 100.584 96.8485 100.68C97.1845 100.776 97.4725 100.914 97.7125 101.094L97.1905 102.408C96.7945 102.108 96.3505 101.958 95.8585 101.958ZM102.658 114.108C101.71 114.108 100.858 113.898 100.102 113.478C99.3456 113.058 98.7516 112.482 98.3196 111.75C97.8996 111.006 97.6896 110.166 97.6896 109.23C97.6896 108.294 97.8996 107.46 98.3196 106.728C98.7516 105.984 99.3456 105.408 100.102 105C100.858 104.58 101.71 104.37 102.658 104.37C103.606 104.37 104.452 104.58 105.196 105C105.952 105.408 106.54 105.984 106.96 106.728C107.392 107.46 107.608 108.294 107.608 109.23C107.608 110.166 107.392 111.006 106.96 111.75C106.54 112.482 105.952 113.058 105.196 113.478C104.452 113.898 103.606 114.108 102.658 114.108ZM102.658 112.596C103.27 112.596 103.816 112.458 104.296 112.182C104.788 111.894 105.172 111.498 105.448 110.994C105.724 110.478 105.862 109.89 105.862 109.23C105.862 108.57 105.724 107.988 105.448 107.484C105.172 106.968 104.788 106.572 104.296 106.296C103.816 106.02 103.27 105.882 102.658 105.882C102.046 105.882 101.494 106.02 101.002 106.296C100.522 106.572 100.138 106.968 99.8496 107.484C99.5736 107.988 99.4356 108.57 99.4356 109.23C99.4356 109.89 99.5736 110.478 99.8496 110.994C100.138 111.498 100.522 111.894 101.002 112.182C101.494 112.458 102.046 112.596 102.658 112.596ZM111.653 106.062C111.953 105.51 112.397 105.09 112.985 104.802C113.573 104.514 114.287 104.37 115.127 104.37V106.044C115.031 106.032 114.899 106.026 114.731 106.026C113.795 106.026 113.057 106.308 112.517 106.872C111.989 107.424 111.725 108.216 111.725 109.248V114H109.997V104.46H111.653V106.062ZM129.191 104.37C130.391 104.37 131.339 104.718 132.035 105.414C132.743 106.11 133.097 107.142 133.097 108.51V114H131.369V108.708C131.369 107.784 131.153 107.088 130.721 106.62C130.301 106.152 129.695 105.918 128.903 105.918C128.027 105.918 127.331 106.194 126.815 106.746C126.299 107.286 126.041 108.066 126.041 109.086V114H124.313V108.708C124.313 107.784 124.097 107.088 123.665 106.62C123.245 106.152 122.639 105.918 121.847 105.918C120.971 105.918 120.275 106.194 119.759 106.746C119.243 107.286 118.985 108.066 118.985 109.086V114H117.257V104.46H118.913V105.882C119.261 105.39 119.717 105.018 120.281 104.766C120.845 104.502 121.487 104.37 122.207 104.37C122.951 104.37 123.611 104.52 124.187 104.82C124.763 105.12 125.207 105.558 125.519 106.134C125.879 105.582 126.377 105.15 127.013 104.838C127.661 104.526 128.387 104.37 129.191 104.37Z" fill="#2E73C4"/>
</svg>
