<svg width="36" height="36" viewBox="0 0 36 36" fill="none" xmlns="http://www.w3.org/2000/svg">
<rect x="-0.000488281" width="35.9998" height="35.9998" rx="8.47054" fill="#2E73C4"/>
<path fill-rule="evenodd" clip-rule="evenodd" d="M10.0582 18.0002C10.0582 16.0303 10.0582 15.0453 10.2941 14.2419C10.8525 12.3404 12.3395 10.8533 14.2411 10.295C15.0444 10.0591 16.0294 10.0591 17.9994 10.0591C19.9693 10.0591 20.9543 10.0591 21.7577 10.295C23.6592 10.8533 25.1463 12.3404 25.7046 14.2419C25.9405 15.0453 25.9405 16.0303 25.9405 18.0002C25.9405 19.9702 25.9405 20.9551 25.7046 21.7585C25.1463 23.6601 23.6592 25.1471 21.7577 25.7055C20.9543 25.9413 19.9693 25.9413 17.9994 25.9413C16.0294 25.9413 15.0444 25.9413 14.2411 25.7055C12.3395 25.1471 10.8525 23.6601 10.2941 21.7585C10.0582 20.9551 10.0582 19.9702 10.0582 18.0002ZM17.9993 13.7958C15.6776 13.7958 13.7952 15.6782 13.7952 17.9999C13.7952 20.3217 15.6776 22.2041 17.9993 22.2041C20.3211 22.2041 22.2035 20.3217 22.2035 17.9999C22.2035 15.6782 20.3211 13.7958 17.9993 13.7958ZM17.9993 20.6275C16.551 20.6275 15.3718 19.4483 15.3718 17.9999C15.3718 16.5506 16.551 15.3724 17.9993 15.3724C19.4477 15.3724 20.6269 16.5506 20.6269 17.9999C20.6269 19.4483 19.4477 20.6275 17.9993 20.6275ZM23.0789 13.4807C23.0789 13.7901 22.8281 14.0409 22.5187 14.0409C22.2093 14.0409 21.9585 13.7901 21.9585 13.4807C21.9585 13.1713 22.2093 12.9205 22.5187 12.9205C22.8281 12.9205 23.0789 13.1713 23.0789 13.4807Z" fill="white"/>
</svg>
