<svg width="36" height="36" viewBox="0 0 36 36" fill="none" xmlns="http://www.w3.org/2000/svg">
<rect width="35.9998" height="35.9998" rx="8.47054" fill="#2E73C4"/>
<path d="M22.4175 9.26828L20.212 9.26465C17.7342 9.26465 16.133 10.9522 16.133 13.5642V15.5465H13.9155C13.7239 15.5465 13.5687 15.7061 13.5687 15.9029V18.7752C13.5687 18.972 13.7241 19.1314 13.9155 19.1314H16.133V26.3789C16.133 26.5757 16.2882 26.7351 16.4798 26.7351H19.373C19.5646 26.7351 19.7198 26.5756 19.7198 26.3789V19.1314H22.3125C22.5042 19.1314 22.6593 18.972 22.6593 18.7752L22.6604 15.9029C22.6604 15.8084 22.6238 15.7179 22.5588 15.651C22.4939 15.5841 22.4054 15.5465 22.3134 15.5465H19.7198V13.866C19.7198 13.0583 19.9071 12.6483 20.9314 12.6483L22.4171 12.6478C22.6085 12.6478 22.7637 12.4882 22.7637 12.2915V9.62452C22.7637 9.42804 22.6087 9.26865 22.4175 9.26828Z" fill="white"/>
</svg>
