<svg width="36" height="36" viewBox="0 0 36 36" fill="none" xmlns="http://www.w3.org/2000/svg">
<rect x="-0.000732422" width="35.9998" height="35.9998" rx="8.47054" fill="#2E73C4"/>
<path fill-rule="evenodd" clip-rule="evenodd" d="M25.4562 11.7377C26.2725 11.9576 26.9162 12.6012 27.1359 13.4176C27.5442 14.9089 27.5285 18.0174 27.5285 18.0174C27.5285 18.0174 27.5285 21.11 27.136 22.6014C26.9162 23.4178 26.2726 24.0615 25.4562 24.2812C23.9647 24.6738 17.9992 24.6738 17.9992 24.6738C17.9992 24.6738 12.0492 24.6738 10.5422 24.2656C9.72572 24.0458 9.08215 23.402 8.8623 22.5857C8.46985 21.11 8.46985 18.0017 8.46985 18.0017C8.46985 18.0017 8.46985 14.9089 8.8623 13.4176C9.08201 12.6013 9.74142 11.9419 10.542 11.7222C12.0335 11.3296 17.999 11.3296 17.999 11.3296C17.999 11.3296 23.9647 11.3296 25.4562 11.7377ZM21.0605 18.0019L16.0996 20.8592V15.1447L21.0605 18.0019Z" fill="white"/>
</svg>
