<svg width="36" height="36" viewBox="0 0 36 36" fill="none" xmlns="http://www.w3.org/2000/svg">
<rect x="-0.000244141" width="35.9998" height="35.9998" rx="8.47054" fill="#2E73C4"/>
<path d="M26.3379 13.0546C25.7241 13.3151 25.0655 13.4917 24.3735 13.5705C25.0801 13.1654 25.6209 12.5228 25.8773 11.7595C25.2145 12.1347 24.483 12.4071 23.7035 12.5548C23.0793 11.9172 22.1914 11.52 21.2066 11.52C19.3174 11.52 17.7855 12.9868 17.7855 14.7948C17.7855 15.0513 17.8157 15.3017 17.8741 15.5412C15.0313 15.4045 12.5105 14.1004 10.8234 12.1187C10.5285 12.6016 10.3607 13.1644 10.3607 13.7651C10.3607 14.9016 10.9651 15.9044 11.8822 16.4911C11.3215 16.4731 10.7942 16.3254 10.3326 16.08V16.1209C10.3326 17.7074 11.5122 19.0315 13.0764 19.3328C12.7898 19.4067 12.4876 19.4476 12.175 19.4476C11.9541 19.4476 11.7404 19.4266 11.531 19.3867C11.9665 20.6889 13.2296 21.6358 14.726 21.6617C13.5557 22.5398 12.0801 23.0617 10.4774 23.0617C10.2013 23.0617 9.9293 23.0457 9.6615 23.0168C11.1756 23.9477 12.9732 24.4905 14.9052 24.4905C21.1984 24.4905 24.6383 19.4995 24.6383 15.171L24.6268 14.7469C25.2989 14.2879 25.8804 13.7112 26.3379 13.0546Z" fill="white"/>
</svg>
