<svg width="36" height="36" viewBox="0 0 36 36" fill="none" xmlns="http://www.w3.org/2000/svg">
<rect x="-0.000488281" width="35.9998" height="35.9998" rx="8.47054" fill="#2E73C4"/>
<path d="M25.9368 25.9414V25.9407H25.9407V20.1159C25.9407 17.2664 25.3273 15.0713 21.996 15.0713C20.3945 15.0713 19.3198 15.9501 18.8811 16.7833H18.8347V15.3373H15.6761V25.9407H18.9651V20.6903C18.9651 19.3079 19.2272 17.9711 20.9391 17.9711C22.626 17.9711 22.6511 19.5488 22.6511 20.779V25.9414H25.9368Z" fill="white"/>
<path d="M10.3204 15.3379H13.6134V25.9413H10.3204V15.3379Z" fill="white"/>
<path d="M11.9657 10.0591C10.9128 10.0591 10.0585 10.9134 10.0585 11.9663C10.0585 13.0191 10.9128 13.8913 11.9657 13.8913C13.0185 13.8913 13.8729 13.0191 13.8729 11.9663C13.8722 10.9134 13.0179 10.0591 11.9657 10.0591V10.0591Z" fill="white"/>
</svg>
