<svg width="70" height="70" viewBox="0 0 70 70" fill="none" xmlns="http://www.w3.org/2000/svg">
<path d="M51.7562 7C55.7163 10.4986 60.8848 12.3201 66.1667 12.0788C66.9357 14.691 67.171 17.4309 66.8586 20.1357C66.5462 22.8405 65.6925 25.455 64.3482 27.8239C63.004 30.1927 61.1966 32.2675 59.0334 33.9251C56.8703 35.5826 54.3955 36.789 51.7562 37.4726C49.1169 36.789 46.6422 35.5826 44.479 33.9251C42.3159 32.2675 40.5085 30.1927 39.1642 27.8239C37.8199 25.455 36.9662 22.8405 36.6539 20.1357C36.3415 17.4309 36.5768 14.691 37.3458 12.0788C42.6277 12.3201 47.7962 10.4986 51.7562 7" stroke="#2E73C4" stroke-width="4.57089" stroke-linecap="round" stroke-linejoin="round"/>
<path d="M63.9453 43.5676V52.7094C63.9453 57.7582 59.8524 61.8511 54.8035 61.8511H12.1418C7.09291 61.8511 3 57.7582 3 52.7094V28.3312C3 23.2824 7.09292 19.1895 12.1418 19.1895H27.3781" stroke="#2E73C4" stroke-width="4.57089" stroke-linecap="round" stroke-linejoin="round"/>
<rect x="3" y="31.3784" width="27.4254" height="3.04726" rx="1.52363" fill="#2E73C4" stroke="#2E73C4" stroke-width="4.57089" stroke-linejoin="round"/>
<path d="M18.2363 49.6621H18.2668" stroke="#2E73C4" stroke-width="4.57089" stroke-linecap="round" stroke-linejoin="round"/>
<path d="M30.4254 49.6621H36.5199" stroke="#2E73C4" stroke-width="4.57089" stroke-linecap="round" stroke-linejoin="round"/>
</svg>
