<svg width="70" height="70" viewBox="0 0 70 70" fill="none" xmlns="http://www.w3.org/2000/svg">
<g clip-path="url(#clip0_29_16115)">
<path d="M28.4926 13.9829C28.948 13.5274 28.9481 12.7889 28.4927 12.3333L25.0825 8.9215C24.3477 8.18627 23.0907 8.70673 23.0907 9.74626V11.1228C17.0086 11.3298 11.3235 13.7916 7.0041 18.1109C2.9732 22.1418 0.558493 27.3619 0.0857381 32.9841C-0.00916455 34.1128 0.918166 35.0328 2.05078 35.0328V35.0328C3.1834 35.0328 4.09039 34.1117 4.20654 32.9851C5.20648 23.2851 13.2299 15.6382 23.0907 15.2273V16.5691C23.0907 17.6085 24.3475 18.129 25.0824 17.3939L28.4926 13.9829Z" fill="#2E73C4"/>
<path d="M67.9494 35.0332C66.8167 35.0332 65.9097 35.9543 65.7936 37.0809C64.7936 46.7808 56.7703 54.4277 46.9094 54.8386V53.4968C46.9094 52.4573 45.6526 51.9368 44.9177 52.6719L41.5075 56.0829C41.0521 56.5385 41.0521 57.2769 41.5074 57.7325L44.9176 61.1443C45.6525 61.8796 46.9094 61.3591 46.9094 60.3196V58.943C52.9915 58.736 58.6767 56.2742 62.996 51.9549C67.0271 47.9241 69.4417 42.7041 69.9144 37.0819C70.0093 35.9532 69.082 35.0332 67.9494 35.0332V35.0332Z" fill="#2E73C4"/>
<path d="M18.9743 42.4616C18.7223 42.5032 18.4652 42.5032 18.2132 42.4616L2.71384 39.8997C1.29254 39.6648 0 40.7612 0 42.2018V64.8712C0 66.0131 0.826302 66.9871 1.95283 67.1733L18.2132 69.861C18.4652 69.9026 18.7223 69.9026 18.9743 69.861L35.2347 67.1733C36.3612 66.9871 37.1875 66.0131 37.1875 64.8712V42.2018C37.1875 40.7612 35.895 39.6648 34.4737 39.8997L18.9743 42.4616ZM20.6445 63.6881C20.6445 64.6916 19.9183 65.5478 18.9281 65.7114V65.7114C18.7067 65.748 18.4808 65.748 18.2594 65.7114V65.7114C17.2692 65.5478 16.543 64.6916 16.543 63.6881V48.1658C16.543 47.211 17.3996 46.4843 18.3416 46.64V46.64C18.5086 46.6676 18.6789 46.6676 18.8459 46.64V46.64C19.7879 46.4843 20.6445 47.211 20.6445 48.1658V63.6881Z" fill="#2E73C4"/>
<path d="M51.7868 3.08658C51.5348 3.12823 51.2777 3.12823 51.0257 3.08658L35.5263 0.524734C34.105 0.289811 32.8125 1.38624 32.8125 2.82683V25.4962C32.8125 26.6381 33.6388 27.6121 34.7653 27.7983L51.0257 30.486C51.2777 30.5276 51.5348 30.5276 51.7868 30.486L68.0472 27.7983C69.1737 27.6121 70 26.6381 70 25.4962V2.82683C70 1.38624 68.7075 0.289811 67.2862 0.524734L51.7868 3.08658ZM53.457 24.3131C53.457 25.3166 52.7308 26.1728 51.7406 26.3364V26.3364C51.5192 26.373 51.2933 26.373 51.0719 26.3364V26.3364C50.0817 26.1728 49.3555 25.3166 49.3555 24.3131V8.79077C49.3555 7.83601 50.2121 7.10933 51.1541 7.26501V7.26501C51.3211 7.2926 51.4914 7.2926 51.6584 7.26501V7.26501C52.6004 7.10933 53.457 7.83601 53.457 8.79077V24.3131Z" fill="#2E73C4"/>
</g>
<defs>
<clipPath id="clip0_29_16115">
<rect width="70" height="70" fill="white"/>
</clipPath>
</defs>
</svg>
